<svg xmlns="http://www.w3.org/2000/svg" viewBox="0 0 713 713">
  <g transform="translate(-2.981 -10.252)" fill="#000">
    <ellipse cx="361" cy="362.647" fill="#F3F2EA" stroke="#F3F2EA" stroke-width="7" class="cls-2" data-name="Innter Circle" rx="318" ry="318.5"/>
    <path fill-rule="evenodd" d="M171.312 503.44q-.194-.23-1.183-1.7l-.494-.736a51.153 51.153 0 0 1-2.756-5.183l-2.733-5.243a4.552 4.552 0 0 0-.317-.638q-.358-.712-.828-1.508-.534-.9-1.348-2.184a14.293 14.293 0 0 0-1.738.692q-.366.186-1.359.829a2.373 2.373 0 0 0 .058 1.009 3.552 3.552 0 0 1 .135.734l2.091 5.873-.083.467q-1.176.736-2.369 1.34l-14.231 7.209q-.366.186-1.564.886l-.6.3-3.546 1.56a5.608 5.608 0 0 1-1.236-1.39l-.6-1.01q-.382-.648-.981-1.563a5.252 5.252 0 0 1-.387-.555l-.1-.276-.143-.346-9.641-16.86q-.868-1.575-1.518-2.98 3.4-1.721 5.7-3.17l3.923-1.94q8.652-4.335 12.6-5.821.681.547 1.074.91l2.322 2.626 2.466 2.364a25.526 25.526 0 0 0 3.09-1.33 4.092 4.092 0 0 0-.447-1.367 77.163 77.163 0 0 1-5.106-7.347 92.32 92.32 0 0 1-5.2-9.736 39.02 39.02 0 0 0-2.063-4.11q-.149-.251-1.045-1.671l-3.15 1.736a26.443 26.443 0 0 0 1.126 6.056q.2.74.367 1.634-2.2 1.022-3.715 1.788l-5.374 2.816-6.519 3.3q-6.135 3.343-8.185 4.318l-5.887 2.857-4.385 2.268-5.83 2.953q-.229.116-2.253 1.235l-1.148.58q-.5.256-1.526.648l-.625.255-1.172.64-.78.4-1.046.248a13.442 13.442 0 0 1-2.3-1.52q-.993-.826-3.815-3.691-1.554.6-3.366 1.47.735 1.55 1.351 2.6a12.04 12.04 0 0 0 1.941 2.484q.408.59.836 1.217l2.948 4.6q.323.447.79 1.24a49.831 49.831 0 0 1 3.469 7.1l2.017 3.523c.071.12.278.437.62.95a18.162 18.162 0 0 0 2.787-1.035 9.624 9.624 0 0 0-.308-1.534 21.288 21.288 0 0 1-.916-6.105 1.284 1.284 0 0 1 .3-.808l3.064-1.881 7.677-4.17 2.108-.974q6.127-3.056 7.73-3.774a13.935 13.935 0 0 1 1.853 2.435l3.952 6.2 3.783 6.519 1.531 2.6 3.01 5.41a13.1 13.1 0 0 1 .724 1.836q-2.528 1.374-3.216 1.723-.78.395-1.53.743-1.267.58-1.5.7-.412.21-1.2.7l-5.872 2.88a6.715 6.715 0 0 0-.83.515l-.367.186-1.589.743-2.034 1-.719.4-1.651.94a1.762 1.762 0 0 1-1.78-.087l-5.053-5.741a14.937 14.937 0 0 0-1.876.76q-.413.21-1.356.735a13.707 13.707 0 0 0 1.139 2.337 7.07 7.07 0 0 0 1.211 1.548q3.19 4.4 3.893 5.594.448.76.966 1.79t1.093 2.008a75.766 75.766 0 0 1 3.218 6.875q.345.485 1.113 1.787a10.649 10.649 0 0 0 1.378 1.933 8.108 8.108 0 0 0 1.644-.548q.368-.186 1.634-.97a6.612 6.612 0 0 0-.515-1.683l-.139-.64a26.44 26.44 0 0 1-1.328-3.263 6.98 6.98 0 0 0-.281-.782 2.442 2.442 0 0 1-.194-.732 7.384 7.384 0 0 1 .94-.833q3.4-2.123 6.062-3.471l1.973-1 3.952-2.1 3.913-1.857 1.274-.77q7.575-3.837 9.521-4.682l1.123-.522q3.075-1.558 9.187-4.841l11.756-5.34a19.592 19.592 0 0 1 1.918 1.636l3.7 4.052a31.652 31.652 0 0 0 3.388-1.432 58.3 58.3 0 0 0-4.506-6.835zM138.385 447.196a33.2 33.2 0 0 0-1.912-5.721l-.729-1.645q-1.359-9.683-1.944-12.227a8.4 8.4 0 0 0-1.148.037q-.687.073-2.447.3.139 2.59.126 2.969a6.13 6.13 0 0 1-.5 3.749 2.165 2.165 0 0 1-1.686.766 16.421 16.421 0 0 1-3.715-.405q-9.813-1.768-12.371-2.391l-3.532-15.662 8.892-4.235 4.442-2.138a4.376 4.376 0 0 1 1.279-.345 1.907 1.907 0 0 1 1.224.29 9.026 9.026 0 0 1 1.526 2.275l2.221 4.428q1.6-.044 3.319-.225l-.558-2-2.037-6.925q-.426-1.425-1.167-4.665-.666-2.912-1.157-6.6-.491-3.688-1.186-6.721-.745.038-1.09.073a20.436 20.436 0 0 0-2.36.46 12.7 12.7 0 0 0-.309 3.707 3.861 3.861 0 0 1-.434 2.5 6.806 6.806 0 0 1-2.125 1.485 64.4 64.4 0 0 1-5.773 2.918q-4.288 1.92-6.411 2.986-3.512 1.8-9.139 4.364-5.627 2.564-11.509 5.664l-18.607 9.275-.8.462.425 1.859.6 2.6 32.75 6.486 27.858 5.535a10.53 10.53 0 0 1 3.229 1.36 13.167 13.167 0 0 1 2.2 3.694 26.932 26.932 0 0 0 1.365 2.67l3.36-.271zm-52.17-19.561q2.765-1.553 8.135-4.136 5.37-2.583 9.461-4.277l.283 1.019q.394 1.72 2.438 11.32zM124.007 387.598a6.293 6.293 0 0 0 .972-.132c.033-.386.048-.67.048-.847v-.667q-.427-4.563-.6-9.805l-.342-9.06q-.028-7.294.248-14.912.276-7.618.325-8.511.391-4.91.389-5.311l-.06-2.31-.007-1.646a9.056 9.056 0 0 0-.21-1.28 23.358 23.358 0 0 0-4.494-.424q-9.19-.394-12.866-.231l-1.429.063a16.255 16.255 0 0 0-.2 2.41l.006 1.424a32.334 32.334 0 0 1 5.924 1.9 13.555 13.555 0 0 1 3.325 2.322 9.077 9.077 0 0 1 2.871 3.876q1.9 4.01 1.931 11.169l-.04 2.8.061 2.622-.18 4.234a3.149 3.149 0 0 1-2 .533l-24.286.9q-2.049.09-3.33.1-3.434.018-6.1.136-2.306.1-5.379.372-1.947.175-2.767.21-.666.03-1.332.027-2.563.014-2.819.024l-.564.025-.922.04-3.228.01-1.435.02a5.389 5.389 0 0 1-.616-.24 10.498 10.498 0 0 1-.412-.738l-1.508-5.45a3.544 3.544 0 0 0-.623-1.93 2.69 2.69 0 0 0-1.772-.41 4.152 4.152 0 0 0-2.021.446 1.077 1.077 0 0 0-.4.952q0 .222.145 1.639.444 4.785.456 7.853l-.084 4.719.076 6.358q-.383 6.69-.379 7.757a1.5 1.5 0 0 0 .259.834q.82.009 1.229-.01.717-.032 2.047-.18a5.553 5.553 0 0 0 1.066-2.226 11.018 11.018 0 0 1 .709-2.034l.762-1.724q.812-2.3 1.348-2.617a32.26 32.26 0 0 1 5.914-.863l.717-.031 5.174-.185 11.425-.328 5.328-.325 5.02-.177 4.252-.19 6.661-.027 6.557-.38a9.849 9.849 0 0 1 2.05.177 3.312 3.312 0 0 1 .652 2.284q0 .446.433 2.939a26.361 26.361 0 0 0 .9 3.853 11.083 11.083 0 0 0 3.124.173zM63.183 317.323q.385-.923.613-1.64a20.471 20.471 0 0 1 1.734-4.058q.38-.684.583-1.084a1.875 1.875 0 0 1 .985-1q.773.08 1.025.132l6.321.949 5.674 1.215 8.094 1.477 5.674 1.215 18.99 3.815 1.55.36q2.072.39 2.926.567a13.559 13.559 0 0 1 3.569 1.18 14.976 14.976 0 0 1 .26 5.838 18.92 18.92 0 0 0-.158 3.02l3.47.719.933-4.67.394-1.607q1.138-6.8 2.262-11.388 2.259-9.217 4.214-15.686 2.781-9.19 3.306-11.332.355-1.453.814-3.971l-5.567-1.866-9.165-3.361-1.453-.538-2.067-.626q-.255.83-.359 1.25a16.5 16.5 0 0 0-.327 1.98 27.337 27.337 0 0 1 8.4 6.279 8.557 8.557 0 0 1 2.265 5.208 34.154 34.154 0 0 1-1.154 9.239q-1.968 8.026-3.407 9.374a3.109 3.109 0 0 1-2.869.49l-10.845-2.327q-4.01-.671-10-1.911l-1.71-.354a71.318 71.318 0 0 1 1.728-8.778q1.2-4.9 1.741-5.6a3.143 3.143 0 0 1 1.733-1.25 26.07 26.07 0 0 1 6.173-.17q2.618.1 3.46.113l.665-2.713-1.107-.23q-1.458-.3-4.479-.807-3.021-.507-4.379-.787-.855-.177-2.35-.547-1.495-.37-6.776-1.464-2.313-.48-6.827-1.254l-.594 2.206-.071.507q6.043 2.3 7.065 2.873a5.165 5.165 0 0 1 1.887 1.679q.46.82.1 3.8a95.98 95.98 0 0 1-2.041 9.84 11.357 11.357 0 0 1-.555 1.615l-6.331-1.307-8.459-1.712q-8.65-1.793-9.88-2.168.7-3.711 1.841-8.373a71.231 71.231 0 0 1 2.276-7.561q.679-1.907.823-2.28a8.437 8.437 0 0 1 1-2.362 26.078 26.078 0 0 1 5.227-1.487l3.946-.79q2.1-.165 3.192-.3.345-.972.419-1.278l.284-1.588a16.9 16.9 0 0 0-.9-.226l-2.081-.351-10.361-2.146a4.94 4.94 0 0 0-2.885.125 48.187 48.187 0 0 0-2.44 6.723l-1.595 6.939q-1.686 6.879-3.322 15.5-1.094 5.758-1.431 7.133a40.989 40.989 0 0 1-2.267 6.88 34.81 34.81 0 0 0-1.38 3.69zM76.018 258.322c.287.159.525.28.714.365a2.133 2.133 0 0 0 .853.15q2.368-2.68 2.75-2.97a4.905 4.905 0 0 1 1.716-.85q4.6-.575 5.076-.594l8.777-.328 17.88-1.063q.657-.03 2.852-.342 5.154-.746 8.133.584l1.088.485q.426.19 3.09 1.287 2.664 1.096 9.9 4.325.522.233 2.677 1.24a5.018 5.018 0 0 1 .029 1.075l-1.753 7.7q1.022.5 1.541.734.519.234 1.533.638l1.38-2.567a17.756 17.756 0 0 0 1.069-2.983 7.532 7.532 0 0 1 .679-1.772l1.6-3.114 1.953-4.248 1.665-2.671 2.491-3.824 2.315-4.272q-.879-.438-1.306-.628a12.067 12.067 0 0 0-1.1-.582 1.326 1.326 0 0 0-1.1-.122q-.543.265-2.869 3.655a19.374 19.374 0 0 1-1.709 2.19 1.138 1.138 0 0 1-.732.18l-12.188-5.252q-1.325-.591-2.5-1.252l-1.135-.507-4.1-1.874-1.467-.654a7.339 7.339 0 0 1-1.366-1.3q-2.088-2.5-7.351-10.245l-6.703-8.99q-4.681-5.593-5.422-8-.49-1.646.469-5.094l.062-.572-3.529-1.62q-.175.569-.418 1.15a30.7 30.7 0 0 0-1.224 3.283l-.281.659-.926 1.8q-.451.537-.672.853l-4.475 7.462q2.963 1.137 3.617 1.336.374-.387.882-1.036.508-.65 1.1-1.353a8.288 8.288 0 0 1 1-1.491 3.205 3.205 0 0 1 1.05-.685 5.192 5.192 0 0 1 .862.247 5.066 5.066 0 0 1 1.649 1.656l5.5 6.376.164.25q4.378 5.736 6.515 9.04l4.9 6.984a27.674 27.674 0 0 1-2.974.24q-.475.02-1.985.13-.788.065-1.625.106-.542.034-1.064.033-4.824.108-5.5.176-2.528.163-5.338.2a95.191 95.191 0 0 1-13.156.589l-.581-.347-.073-.31q.527-1.7.773-2.745l.49-1.857a9.061 9.061 0 0 0 .4-2.358l-2.441-1.135a3.877 3.877 0 0 0-1.043-.235l-.2.279a3.467 3.467 0 0 0-.214.643 37.71 37.71 0 0 1-2.51 6.12q-1.409 2.74-4.228 7.2-1.529 2.409-1.914 2.929l-.146.4a9.194 9.194 0 0 1-.865 1.229l-.288.333a19.745 19.745 0 0 0-2.034 4.858q.882.435 1.311.673zm57.264-45.217a1.539 1.539 0 0 0 1.2-.755q.657-1.275.178-4.3a18.26 18.26 0 0 0-4.011-8.708 22.558 22.558 0 0 0-8.522-6.385 16.426 16.426 0 0 0-9.988-1.39q-4.785.934-6.329 3.935a5.262 5.262 0 0 0-.063 4.815 7.283 7.283 0 0 0 3.83 3.692 7.527 7.527 0 0 0 4.144.649 15.694 15.694 0 0 0 4.947-2.267 5.165 5.165 0 0 1 4.969-.274 9.025 9.025 0 0 1 3.7 3.314 11.051 11.051 0 0 1 1.914 5.1 4.171 4.171 0 0 0 .666 2.1 8.2 8.2 0 0 0 3.358.484zM135.15 162.319a44.3 44.3 0 0 0-5.433 4.552q-7.437 7.894-6.847 15.21a16.013 16.013 0 0 0 6.9 11.987 22.345 22.345 0 0 0 17.081 3.4q4.4-1.028 13.153-5.66t11.7-4.981q4.817-.6 7.757 1.574a8.265 8.265 0 0 1 3.15 4.71 9.03 9.03 0 0 1-.494 5.93 16.334 16.334 0 0 1-3.065 4.9 17.18 17.18 0 0 1-4.517 3.467 16.209 16.209 0 0 1-4.985 1.7 19.326 19.326 0 0 1-5.578 0q-1.383-.181-7.411-1.748l-3.037 3.367 1.509 1.116q1.073.792 3.719 2.63 5.169 3.522 5.607 3.845l.441.329a2.174 2.174 0 0 0 1.056.238 10.939 10.939 0 0 0 3.1-1.507l5.41-3.24a42.913 42.913 0 0 0 6.388-5.353 32.348 32.348 0 0 0 5.1-6.7 19.574 19.574 0 0 0 2.049-6.36 23.765 23.765 0 0 0 .316-5.378 11.589 11.589 0 0 0-1.57-4.842 24.064 24.064 0 0 0-6.174-6.68 21.036 21.036 0 0 0-6.451-3.414 21.667 21.667 0 0 0-7.507-.578 24.667 24.667 0 0 0-7.855 2.126 61.581 61.581 0 0 0-7.239 3.552q-8.236 4.9-12.456 5.153a9.973 9.973 0 0 1-6.8-1.59 7.22 7.22 0 0 1-3.139-5.792q-.12-3.558 3.163-7.044a13.193 13.193 0 0 1 9.173-4.017q3.339-.184 10.054 2.126l.481-.368 2.611-2.414.216-.444a10.241 10.241 0 0 0-1.414-1.288 76.522 76.522 0 0 0-6.754-4.271 35.8 35.8 0 0 0-4.692-2.384 57.189 57.189 0 0 0-6.726 4.137z" class="cls-3"/>
    <path fill-rule="evenodd" d="M203.854 182.447a6 6 0 0 0 .563.782c.328-.2.563-.36.707-.468l.537-.4q3.481-3.128 7.63-6.44l7.151-5.761q5.874-4.42 12.154-8.764 6.28-4.344 7.022-4.84 4.148-2.612 4.469-2.855l1.837-1.445 1.325-1a9.887 9.887 0 0 0 .935-.958 24.765 24.765 0 0 0-1.772-4.24q-4.005-8.381-5.866-11.541l-.723-1.23a16.014 16.014 0 0 0-2.038 1.28l-1.146.863a37.2 37.2 0 0 1 1.257 6.392 16.829 16.829 0 0 1-.31 4.346 11.317 11.317 0 0 1-1.778 4.88q-2.34 4.1-8.106 8.44l-2.283 1.654-2.087 1.634-3.5 2.39a2.813 2.813 0 0 1-1.37-1.448l-12.148-20.985q-1.036-1.761-1.65-2.89-1.631-3.031-2.978-5.322-1.167-1.981-2.831-4.544-1.058-1.618-1.472-2.325-.338-.572-.647-1.165-1.217-2.262-1.346-2.483l-.285-.485-.467-.792-1.526-2.856-.69-1.26a6.1 6.1 0 0 1-.1-.691c.183-.391.317-.66.4-.81l3.689-4.62a4.152 4.152 0 0 0 1.265-1.713 3.01 3.01 0 0 0-.5-1.818 3.79 3.79 0 0 0-1.31-1.523.934.934 0 0 0-.957.218q-.18.135-1.256 1.116-3.653 3.277-6.123 5.134l-3.848 2.769-5.1 3.9q-5.58 3.69-6.439 4.337a1.727 1.727 0 0 0-.551.732q.378.732.586 1.083.363.618 1.108 1.706a4.682 4.682 0 0 0 2.3-.4 9.678 9.678 0 0 1 1.974-.6l1.75-.363q2.243-.67 2.747-.382.504.287 3.478 4.722l.363.617 2.583 4.475 5.639 9.928 2.768 4.527 2.5 4.343 2.153 3.655 3.156 5.887 3.39 5.584a10.375 10.375 0 0 1 .823 1.923 3.822 3.822 0 0 1-1.537 1.954q-.359.27-2.169 2.154a29.7 29.7 0 0 0-2.688 3.115 11.524 11.524 0 0 0 1.33 2.873z" class="cls-3" data-name="L"/>
    <path fill-rule="evenodd" d="M238.422 126.555a54.234 54.234 0 0 0 4.626 7.07 34.418 34.418 0 0 0 6.168 5.594 34.006 34.006 0 0 0 7.964 3.983q.368.089 3.335.42a15.728 15.728 0 0 0 3.659-.044 28.067 28.067 0 0 0 5.532-1.217q11.55-3.723 14.737-15.17 3.187-11.447-1.427-24.556a41.8 41.8 0 0 0-9.759-15.577A27.23 27.23 0 0 0 261.7 79.9a22.008 22.008 0 0 0-13.427.306 22.82 22.82 0 0 0-7.026 3.58 21.328 21.328 0 0 0-5.163 6 25.908 25.908 0 0 0-3.143 7.9 31.6 31.6 0 0 0-.608 8.708 45.193 45.193 0 0 0 2.444 12.055 46.636 46.636 0 0 0 3.643 8.11zm20.424-40.215q4.918 2.85 8.839 10.045.774 1.453 1 1.79l.478.827q2.6 6.228 3.909 9.933 3.163 8.987 3.252 15.2.089 6.213-2.2 9.555a11.223 11.223 0 0 1-5.924 4.515 8.785 8.785 0 0 1-4.187.24 10.3 10.3 0 0 1-3.7-1.256 20.1 20.1 0 0 1-4.642-3.712 69 69 0 0 1-4.613-6.611 37.1 37.1 0 0 1-2.468-4.775q-.607-1.3-.871-1.834a51.016 51.016 0 0 1-2.241-5.622 68.925 68.925 0 0 1-3.1-11.354 31.983 31.983 0 0 1-.234-9.286 13.321 13.321 0 0 1 1.939-5.242 8.026 8.026 0 0 1 4.522-3.547 12.153 12.153 0 0 1 10.241 1.134zM319.171 61.735a65.657 65.657 0 0 0-9.146.76 23.529 23.529 0 0 0-17.758 12.195q-5.95 10.42-3.409 24.669a43.865 43.865 0 0 0 3.113 10.432 32.385 32.385 0 0 0 5.3 8.189 30.915 30.915 0 0 0 8.26 6.417 20.151 20.151 0 0 0 7.881 2.4 36.359 36.359 0 0 0 9.2-.253 41.942 41.942 0 0 0 10.309-2.7 14.628 14.628 0 0 0 6.038-4.37l.142-2.32.093-1.482q-.168-5.4-.189-6.185 0-2.005-.168-3.84a18.853 18.853 0 0 0-3.687.945 33.28 33.28 0 0 1-5.868 10.887 12.606 12.606 0 0 1-7.644 4.5 13.794 13.794 0 0 1-7.661-1.058 13.026 13.026 0 0 1-5.018-3.616 35.123 35.123 0 0 1-5.152-8.6q-1.466-3.315-2.916-11.444-2.5-14.01 1.095-22.6 2.646-6.338 8.646-7.24a15.214 15.214 0 0 1 9.333 1.518q4.456 2.252 9.333 8.2l3.522-.53a31.678 31.678 0 0 0-1.9-6.392q-2.751-6.51-3.51-7.868a47.955 47.955 0 0 0-8.239-.614zM346.745 121.49q3.571.112 4.04.147l7.524.6q1.872-.01 3.1.079 1.19.087 2.422.264l6.034.749q.808.1 2 .19 1.106.08 3.1.129.092-.816.1-1.2a12.583 12.583 0 0 0-.117-1.463 11.942 11.942 0 0 0-3.214-1.786 10.955 10.955 0 0 1-4.228-2.465l-.133-4.856.118-4.447q-.039-5.975-.078-6.42-.155-2.164-.13-5.247.016-2.2.2-3.95l10.673 14.727q5.628 7.9 5.965 8.363a11.557 11.557 0 0 1 1.3 2.6 1.978 1.978 0 0 1 .127.744 1.661 1.661 0 0 1-.476 1.143 3.262 3.262 0 0 1-1.917.694 30.525 30.525 0 0 0-3.787.949 12.935 12.935 0 0 0-.183 1.724 5.125 5.125 0 0 0 .2 1.27q.678.1 1.018.122.678.05 2.718.022 3.864-.032 4.714.03l5.858.475.891.016 4.158.549a23.909 23.909 0 0 1 2.588.433l4.67.428a14.642 14.642 0 0 0 .183-1.8q0-.49-.074-1.38a29.614 29.614 0 0 0-3.6-1.977 7.371 7.371 0 0 1-1.735-.862 6.079 6.079 0 0 1-1.009-1.348l-.673-.932q-.462-.671-1.721-2.626l-7.389-11.278-8.902-12.663q-.546-.775-.924-1.293l-1.388-1.768q-1.135-1.5-1.934-2.642 1.285-1.524 7.833-8.01 4.836-4.8 6.631-6.318a18.526 18.526 0 0 1 3.587-2.428 47.944 47.944 0 0 1 6.9-2.408q2.084-.341 2.807-.487l.072-3.82q-2.931.032-5.353.149l-10.231-.55q-1.189-.087-3.416-.47t-3.585-.482l-1.868-.136-.047.625q-.015 2.079.063 2.858a13.571 13.571 0 0 0 2.881.922 34.759 34.759 0 0 1 3.943.949l.337.368a23.682 23.682 0 0 1-1.892 3.049q-5.484 6.226-6.04 6.823-1.413 1.419-3.812 4.139-5.141 5.76-8.22 8.578a7.931 7.931 0 0 1-.037-.691l.112-3.532.028-3.735q.105-2.548.11-3.286.009-1.13-.054-4.035-.072-1.873-.065-2.66l.029-3.833a2.371 2.371 0 0 1 .566-1.73 6.673 6.673 0 0 1 2.808-.68 25.373 25.373 0 0 0 5.149-1.247 12.5 12.5 0 0 0 .143-2.114 4.273 4.273 0 0 0-.119-1.071q-.681-.1-1.233-.14-.51-.036-1.786.018a42.022 42.022 0 0 1-4.934-.065l-4.341-.067a60.576 60.576 0 0 1-8.244-1.042 44.782 44.782 0 0 0-6.416-.91 11.042 11.042 0 0 0-1.488-.01l-.32 2.969a11.6 11.6 0 0 0 3.046 1.564 15.436 15.436 0 0 1 5.076 2.755 32.493 32.493 0 0 1 .62 7.744 14.583 14.583 0 0 1-.128 1.952l-.061.535.239 2.175a20.767 20.767 0 0 0-.187 2.193l-.015 1.96-.1 2.15-.014 7.354-.121 10.387-.009 1.176q.149 2.61.143 3.54a56.747 56.747 0 0 1-.315 7.652 2.451 2.451 0 0 1-1.121 1.512 38.03 38.03 0 0 0-7.661 3.07zm63.95 22.706a1.6 1.6 0 0 0 1.124.62 2.245 2.245 0 0 0 1.109-.212 52.684 52.684 0 0 0 4.577-2.61 23.268 23.268 0 0 0 4.143-4.306 17.443 17.443 0 0 0 2.21-5.037 22.7 22.7 0 0 0 .92-6.111 14.538 14.538 0 0 0-2.671-8.948q-2.712-3.7-6.107-3.951a5.677 5.677 0 0 0-4.7 1.594 6.36 6.36 0 0 0-1.8 4.6 6.878 6.878 0 0 0 .78 3.563 11.508 11.508 0 0 0 3.246 3.105 13.547 13.547 0 0 1 3 2.572 4.1 4.1 0 0 1 .493 2.193 8.562 8.562 0 0 1-1.7 4.829 10.754 10.754 0 0 1-4.128 3.622 12.179 12.179 0 0 0-1.459.825 1.008 1.008 0 0 0-.3.567 11.269 11.269 0 0 0 1.268 3.085z" class="cls-3"/>
    <path fill-rule="evenodd" d="M479.644 82.847a36.384 36.384 0 0 0-5.163-3.808q-8.657-4.8-15.545-2.45a17.821 17.821 0 0 0-10.389 9.247 20.331 20.331 0 0 0-2.024 8.023 17.751 17.751 0 0 0 1.362 8.343q1.646 3.748 7.388 10.549 5.742 6.8 6.521 9.4a9.66 9.66 0 0 1-.328 7.44 9.2 9.2 0 0 1-4.016 4.03 9.329 9.329 0 0 1-5.731 1.023 14.489 14.489 0 0 1-5.139-1.57 14 14 0 0 1-3.991-3.244 13.161 13.161 0 0 1-2.38-4.108 16.7 16.7 0 0 1-.844-5.07q-.038-1.3.545-7.168l-3.67-1.924-.836 1.648q-.594 1.17-1.947 4.032-2.577 5.57-2.819 6.049l-.242.477a2 2 0 0 0-.068 1.018 8.8 8.8 0 0 0 1.907 2.447l3.909 4.112a35.246 35.246 0 0 0 6.071 4.478 28.01 28.01 0 0 0 7.162 2.97 18.886 18.886 0 0 0 6.376.286 24.805 24.805 0 0 0 5.178-1.047 12.957 12.957 0 0 0 4.382-2.628 26.433 26.433 0 0 0 5.437-7.268 21.219 21.219 0 0 0 2.281-6.71 19.2 19.2 0 0 0-.583-6.965 20.14 20.14 0 0 0-3.217-6.611 49.549 49.549 0 0 0-4.482-5.7q-5.916-6.271-6.8-10.041a9.307 9.307 0 0 1 .489-6.57 8.033 8.033 0 0 1 5.05-4.29 9.176 9.176 0 0 1 7.2 1.128 10.71 10.71 0 0 1 5.219 7.339q.681 2.99-.508 9.665l.424.346 2.7 1.774.456.086a11.065 11.065 0 0 0 1.014-1.6q1.254-2.472 3.053-7.2a35.771 35.771 0 0 0 1.564-4.855 46.094 46.094 0 0 0-4.963-5.086z" class="cls-3" data-name="S"/>
    <path fill-rule="evenodd" d="M463.327 141.385a34.31 34.31 0 0 0 5.429 2.762l1.691.674q7.822 5.95 10.04 7.359a8.221 8.221 0 0 0 .81-.8q.45-.517 1.571-1.872-1.929-1.743-2.186-2.022-2.069-1.773-2.28-3a2.077 2.077 0 0 1 .688-1.687 16.491 16.491 0 0 1 2.993-2.232q8.4-5.4 10.7-6.69l13.621 8.719-3.491 9.034-1.728 4.528a4.255 4.255 0 0 1-.689 1.112 1.935 1.935 0 0 1-1.1.624 9.556 9.556 0 0 1-2.716-.58l-4.741-1.636q-1.137 1.116-2.26 2.41l1.816 1.04 6.369 3.533q1.315.723 4.142 2.519 2.538 1.614 5.5 3.9 2.962 2.286 5.605 3.966.518-.532.742-.791a19.887 19.887 0 0 0 1.4-1.926 12.668 12.668 0 0 0-2.391-2.841 3.821 3.821 0 0 1-1.449-2.07 6.469 6.469 0 0 1 .5-2.5 61.178 61.178 0 0 1 2.148-5.984q1.769-4.27 2.564-6.465 1.291-3.657 3.581-9.293 2.29-5.636 4.389-11.822l7.02-19.192.257-.87-1.621-1.031-2.27-1.443-28.436 17.6-24.2 14.96a10.821 10.821 0 0 1-3.312 1.225 13.784 13.784 0 0 1-4.211-1.128 28.06 28.06 0 0 0-2.878-.97l-2.256 2.47zm51.809-21.49q-.92 2.976-3.01 8.45-2.09 5.474-3.876 9.449l-.925-.531q-1.5-.954-9.762-6.38z" class="cls-3" data-name="A"/>
    <path fill-rule="evenodd" d="M516.961 175.974q.26.238 3.445 2.633a50.928 50.928 0 0 1 4.067 3.382q7.427 6.826 8.286 7.684l5.052 5.112 1.18 1.024.677.683a11.825 11.825 0 0 0 1.187-1.191 11.4 11.4 0 0 0 .984-1.5l-.833-1.127a21.816 21.816 0 0 0-2.57-3.134l-.686-.75q-2.042-2.588-2.114-3.367-.1-1.22 2.185-4.047l8.207-10.264A22.348 22.348 0 0 1 549 168.09a35.267 35.267 0 0 1 3.383 2.695q9.414 8.654 10.522 11.1.638 1.357-.72 4.8a17.931 17.931 0 0 0-.8 2.532 17.742 17.742 0 0 0 1.3 1.549 8.988 8.988 0 0 0 1.239.9q.626-.672.877-.975 3.861-4.643 4.1-5.014l.54-.81q1.119-1.166 2.575-2.856l4.7-5.18q-1.141-1.226-1.55-1.6a19.583 19.583 0 0 0-.733-.614q-.846-.717-1.031-.888a17.314 17.314 0 0 1-3.917 3.493 3.918 3.918 0 0 1-2.411.188 11.11 11.11 0 0 1-3.041-1.846q-3.356-2.492-4.837-3.853l-4.446-4.087-2.6-2.452a2.354 2.354 0 0 1-.359-.748 25.353 25.353 0 0 1 3.329-4.555l3.923-4.483 3.225-4.115a4.5 4.5 0 0 1 2.137-1.545 10.851 10.851 0 0 1 1.466.753 51.532 51.532 0 0 1 5.432 4.4l5.227 4.567q5 4.6 5.58 6.228.58 1.628-.692 6.457a9.82 9.82 0 0 0-.407 2.3 3.02 3.02 0 0 0 .937 1.4 24.358 24.358 0 0 0 2.108 1.64 5.142 5.142 0 0 0 1.509-1.342l4.7-6.837a18.144 18.144 0 0 0 1.382-2.292q-.66-.546-1.438-1.144-.778-.598-1.225-1.007l-6.808-5.9-1.558-1.433-.77-.648-1.788-1.721-.733-.614q-4.88-4.13-9.22-8.12-8.644-7.947-12.761-12.443l-4.757-4.67-1.958 2.355.724 1.02q1.074 1.7 1.706 2.52 2.652 3.27 2.818 4.253l-8.917 11.67-4.826 5.647-3.848 4.943-2.748 3.226-6.308 7.9-.167.2a12.622 12.622 0 0 1-2.664 2.416l-1.04-.246q-2.258-1.3-4.431-2.708-2.173-1.408-3.131-1.986l-2.115 2.386q.864.852 3.277 3.072z" class="cls-3"/>
    <path fill-rule="evenodd" d="M591.859 173.104q.5.9.935 1.56a23.32 23.32 0 0 1 2.174 3.99q.309.726.5 1.138a1.668 1.668 0 0 1 .176 1.32q-.566.406-.771.52l-4.86 3.119-4.659 2.534-6.436 3.8-4.659 2.534-15.385 8.666-1.3.67q-1.658.966-2.353 1.352a11.538 11.538 0 0 1-3.269 1.29 20.325 20.325 0 0 1-4.909-4.08 25.125 25.125 0 0 0-2.35-2.286l-2.83 1.567 3.19 3.952 1.05 1.4q4.783 5.62 7.786 9.629 6.024 8.052 10.014 13.924 5.664 8.346 7.065 10.217.949 1.269 2.7 3.373l5.119-2 8.66-3.078 1.378-.484 1.846-.79q-.51-.757-.784-1.125a21.107 21.107 0 0 0-1.4-1.634 29.077 29.077 0 0 1-10.533.5 11.431 11.431 0 0 1-5.7-2.417 44.373 44.373 0 0 1-6.757-7.4q-5.247-7.011-5.41-8.857a2.235 2.235 0 0 1 1.458-2.083l8.908-4.84q3.138-1.93 8.02-4.633l1.394-.772a90.313 90.313 0 0 1 6.011 7.412q3.206 4.283 3.419 5.11a2.521 2.521 0 0 1-.106 1.953 18.646 18.646 0 0 1-3.856 3.84q-1.776 1.5-2.331 2l1.774 2.37.9-.5q1.189-.66 3.554-2.111 2.365-1.452 3.473-2.065.7-.386 1.965-1.018 1.265-.632 5.573-3.017 1.886-1.046 5.436-3.2l-1.408-1.96-.365-.41q-5.778 1.969-6.9 2.169a5.792 5.792 0 0 1-2.585-.083 10.428 10.428 0 0 1-3.153-2.7q-2.192-2.383-6.672-8.372a13.375 13.375 0 0 1-.953-1.506l5.167-2.863 6.864-3.851q7.053-3.908 8.154-4.375 2.562 3.114 5.61 7.186 2.673 3.573 4.669 6.859 1.109 1.794 1.318 2.15a9.564 9.564 0 0 1 1.271 2.318 18.193 18.193 0 0 1-2.174 4.227l-1.912 2.949q-1.224 1.386-1.82 2.14.567.915.768 1.182l1.106 1.323c.344-.16.6-.285.763-.375l1.631-1 8.448-4.68a3.545 3.545 0 0 0 1.765-1.828 56.657 56.657 0 0 0-3.882-6.35l-4.6-6q-4.5-6.01-10.437-13.25-3.969-4.838-4.868-6.04a48.953 48.953 0 0 1-4.121-6.358 40.371 40.371 0 0 0-2.1-3.51zm-24.9 88.97a1.281 1.281 0 0 0 .213 1.137 2.6 2.6 0 0 0 .9.734q4.406 2.012 5.141 2.219a30.2 30.2 0 0 0 6.272 1.1 20.539 20.539 0 0 0 5.625-.7 23.284 23.284 0 0 0 5.681-2.177 11.572 11.572 0 0 0 5.708-6.208 6.562 6.562 0 0 0-.678-6.45 6.888 6.888 0 0 0-4.38-2.79 7.283 7.283 0 0 0-4.994.807 5.664 5.664 0 0 0-2.458 2.259 8.307 8.307 0 0 0-.475 3.9 9.848 9.848 0 0 1-.2 3.46 3.363 3.363 0 0 1-1.5 1.4 9.652 9.652 0 0 1-5.122.987 13.988 13.988 0 0 1-5.693-1.406 15.685 15.685 0 0 0-1.633-.71 1.226 1.226 0 0 0-.668.038 8.486 8.486 0 0 0-1.743 2.4z" class="cls-3" data-name="E"/>
    <path fill-rule="evenodd" d="M623.391 270.333a27.791 27.791 0 0 0-5.379-4.115 17.355 17.355 0 0 0-7.391-2.48 20.274 20.274 0 0 0-8 .806 17.036 17.036 0 0 0-9.762 6.9q-3.207 4.909-1.093 12.383 2.441 8.634 12.072 13.594a30.826 30.826 0 0 0-4.2 8.716 10.694 10.694 0 0 0 .082 5.646 8.728 8.728 0 0 0 2.718 4.612 12.838 12.838 0 0 0 5.987 2.7 11.719 11.719 0 0 0 5.068-.02 2.48 2.48 0 0 0 1.368-.964 1.627 1.627 0 0 0 .279-1.424q-.154-.545-1.78-1.116a16.373 16.373 0 0 1-3.7-1.834 2.654 2.654 0 0 1-.792-1.374 5.348 5.348 0 0 1 .518-3.525 22.17 22.17 0 0 1 3.164-4.88l1.082-1.35a4.028 4.028 0 0 1 1.289-1.332q8.619 2.27 11.55 3.353a40.586 40.586 0 0 1 6.266 2.61 27.8 27.8 0 0 1 3.7 3l.868-.144a10.306 10.306 0 0 0 1.431-.3c.5-.138.957-.245 1.374-.318q-.833-1.875-.946-2.274l-.512-1.814-.935-2.591q-1.2-3.34-2.277-5.731a16.786 16.786 0 0 0-1.127-2.021l-2.97.742a5.23 5.23 0 0 1-1.056 2.6 3.676 3.676 0 0 1-1.709 1.187 10.555 10.555 0 0 1-3.821.056 26.153 26.153 0 0 1-6.8-1.717 21.129 21.129 0 0 1 1.486-1.708l5.333-6.136a42.285 42.285 0 0 0 2.765-3.433 41.348 41.348 0 0 1 3.341-4.432 1.342 1.342 0 0 1 .752.518 17.282 17.282 0 0 0 3.637 2.863 10.289 10.289 0 0 0 4.548 1.8 14.526 14.526 0 0 0 5.175-.626 12.167 12.167 0 0 0 6.892-5.352A10.88 10.88 0 0 0 653 272.22a13.129 13.129 0 0 0-1.37-3.6 6.041 6.041 0 0 1-.649-.865 11.885 11.885 0 0 0-6.638-4.911 14.385 14.385 0 0 0-8.3.115 16.28 16.28 0 0 0-3.827 1.73 15.169 15.169 0 0 0-2.961 2.3q-1.132 1.17-4.219 4.9a14.121 14.121 0 0 1-1.65-1.553zm14.984 1.574a8.926 8.926 0 0 1 3.49-2.12 5.664 5.664 0 0 1 4.341.177 4.345 4.345 0 0 1 2.341 2.744 5.009 5.009 0 0 1-.111 3.27 4.027 4.027 0 0 1-1.552 2.1 23.219 23.219 0 0 1-4.27 2.038 11.607 11.607 0 0 1-4.76.66 8.082 8.082 0 0 1-4.368-2.232 29.96 29.96 0 0 1 4.889-6.637zm-37.761 15.36a7.718 7.718 0 0 1 .21-4.7 14.82 14.82 0 0 1 2.308-4.337 22.051 22.051 0 0 1 4.437-4.037 12.618 12.618 0 0 1 3.685-1.785 10.634 10.634 0 0 1 6.09-.155 11.093 11.093 0 0 1 5.025 3.04q-3.735 4.827-7.917 9.672l-5.395 6.273a13.891 13.891 0 0 0-1.049 1.2 7.074 7.074 0 0 1-1.115 1.145q-5.1-2.151-6.279-6.315z" class="cls-3" data-name="&amp;"/>
    <path fill-rule="evenodd" d="M601.955 320.263q.269 3.579.284 4.046l.218 7.506q.207 1.882.251 3.112.042 1.188 0 2.41l-.086 6q-.015.8.028 1.992.039 1.1.2 3.107c.531.11.923.178 1.173.2a11.1 11.1 0 0 0 1.4.015 9.574 9.574 0 0 0 1.385-3.068 8.654 8.654 0 0 1 1.934-4.027l4.673.3 4.306.52q5.763.5 6.188.5 2.073.04 5.052.342 2.127.216 3.835.557l-13.091 9.4q-7.03 4.944-7.444 5.24a8.653 8.653 0 0 1-2.368 1.069 1.7 1.7 0 0 1-.706.06 1.932 1.932 0 0 1-1.153-.581 4.086 4.086 0 0 1-.872-1.988 36.819 36.819 0 0 0-1.317-3.891 12.789 12.789 0 0 0-1.683-.34 4.4 4.4 0 0 0-1.2.09 16.14 16.14 0 0 0-.011 1.012q.024.678.266 2.729.438 3.886.469 4.734l.157 5.838.079.894-.09 4.129a23.211 23.211 0 0 1-.146 2.56l.07 4.652a14.8 14.8 0 0 0 1.757.347q.474.047 1.323.049a23.7 23.7 0 0 0 1.531-3.434 5.987 5.987 0 0 1 .649-1.665 4.388 4.388 0 0 1 1.2-.893l.828-.591q.6-.405 2.354-1.493l10.107-6.408 11.284-7.81q.692-.48 1.151-.812l1.561-1.235q1.332-1 2.346-1.7 1.608 1.429 8.56 8.593 5.14 5.29 6.8 7.232a24.529 24.529 0 0 1 2.722 3.822 60.363 60.363 0 0 1 3.053 7.148q.549 2.124.765 2.865l3.7.416q-.341-2.948-.709-5.392l-.549-10.231q-.042-1.186.093-3.39.135-2.202.087-3.558l-.066-1.864-.608-.1q-2.008-.2-2.752-.194a12.133 12.133 0 0 0-.586 2.812 32.507 32.507 0 0 1-.5 3.876l-.319.305a29.7 29.7 0 0 1-3.144-2.176q-6.588-6.072-7.224-6.684-1.518-1.546-4.4-4.2-6.1-5.684-9.149-9.032c.283 0 .5.009.663.025l3.421.43 3.609.366q2.471.334 3.183.406 1.091.11 3.89.31 1.8.1 2.56.174l3.7.375a2.7 2.7 0 0 1 1.729.724 8.11 8.11 0 0 1 .952 2.883 30.531 30.531 0 0 0 1.748 5.285 12.418 12.418 0 0 0 2.056.335 3.769 3.769 0 0 0 1.021-.023q.022-.675 0-1.226-.018-.51-.2-1.8a44.968 44.968 0 0 1-.457-4.951l-.389-4.353a60.125 60.125 0 0 1 .136-8.19 44.234 44.234 0 0 0 .2-6.364 11.775 11.775 0 0 0-.147-1.494l-2.9-.59a9.432 9.432 0 0 0-1.188 2.92 12.356 12.356 0 0 1-2.124 4.852 29.2 29.2 0 0 1-7.41-.074 14.447 14.447 0 0 1-1.9-.305l-.523-.11-2.074.044a20.66 20.66 0 0 0-2.137-.385l-1.894-.191-2.086-.3-7.1-.676-10.04-1.058-1.137-.115q-2.5-.086-3.4-.176a55.658 55.658 0 0 1-7.419-1 3.122 3.122 0 0 1-1.578-1.263 48.279 48.279 0 0 0-3.773-7.975z" class="cls-3" data-name="K"/>
    <path fill-rule="evenodd" d="M659.211 390.734q-.309 1.01-.487 1.787a25.469 25.469 0 0 1-1.4 4.44c-.208.5-.368.9-.479 1.2a2.044 2.044 0 0 1-.839 1.147 9.54 9.54 0 0 1-.916-.043l-5.652-.411-5.086-.752-7.247-.8-5.087-.753-17.014-2.25-1.391-.236q-1.855-.22-2.621-.325a10.112 10.112 0 0 1-3.214-.912 18.4 18.4 0 0 1-.441-6.13 23.723 23.723 0 0 0 .033-3.2l-3.11-.435-.662 5.01-.293 1.73q-.768 7.274-1.6 12.219-1.679 9.928-3.184 16.93-2.142 9.949-2.532 12.257-.264 1.566-.581 4.263l5.015 1.448 8.266 2.69 1.311.429q.753.188 1.859.467.2-.9.275-1.352a21.079 21.079 0 0 0 .219-2.12 22.766 22.766 0 0 1-7.688-5.835 9.278 9.278 0 0 1-2.2-5.28 43.268 43.268 0 0 1 .7-9.848q1.461-8.645 2.693-10.2a2.553 2.553 0 0 1 2.531-.784l9.723 1.443q3.588.332 8.952 1.082l1.533.214a90.818 90.818 0 0 1-1.221 9.415 30.633 30.633 0 0 1-1.348 6.063 3.173 3.173 0 0 1-1.5 1.48 20.088 20.088 0 0 1-5.48.755q-2.331.138-3.08.2l-.493 2.923.991.138q1.307.183 4.01.434 2.703.25 3.92.42.766.109 2.108.359t6.075.912q2.073.289 6.113.685l.449-2.381.045-.542a66.3 66.3 0 0 1-6.382-2.37 4.5 4.5 0 0 1-1.738-1.594q-.438-.822-.224-4t1.462-10.565a14.374 14.374 0 0 1 .435-1.755l5.68.793 7.581 1.018q7.752 1.083 8.859 1.364-.488 3.978-1.336 9-.744 4.406-1.751 8.184-.536 2.075-.65 2.48a10.488 10.488 0 0 1-.806 2.584 21.945 21.945 0 0 1-4.592 2.055l-3.478 1.2q-1.863.372-2.827.617-.271 1.058-.326 1.387l-.195 1.7q.534.117.8.155l1.862.176 9.286 1.3a3.832 3.832 0 0 0 2.559-.4 60.653 60.653 0 0 0 1.928-7.316l1.169-7.464q1.251-7.412 2.4-16.648.766-6.173 1.016-7.654a51.856 51.856 0 0 1 1.769-7.465q.563-1.69 1.094-4.02z" class="cls-3" data-name="E"/>
    <path fill-rule="evenodd" d="M650.948 454.618a8.544 8.544 0 0 0-.615-.4 1.569 1.569 0 0 0-.729-.18q-1.959 2.733-2.278 3.026a3.7 3.7 0 0 1-1.443.839q-3.9.472-4.3.48l-7.457.1-15.183.613q-.557.013-2.418.278-4.366.635-6.928-.836l-.935-.538q-.365-.21-2.653-1.43-2.288-1.218-8.506-4.792-.448-.258-2.3-1.37a6.521 6.521 0 0 1-.047-1.123l1.338-8q-.879-.552-1.326-.81-.447-.256-1.316-.708l-1.122 2.643a20.489 20.489 0 0 0-.849 3.085 8.674 8.674 0 0 1-.543 1.833l-1.3 3.207-1.575 4.383-1.363 2.743-2.041 3.924-1.883 4.4q.756.48 1.123.693a10.337 10.337 0 0 0 .944.638.957.957 0 0 0 .938.158 16.929 16.929 0 0 0 2.367-3.738 18.912 18.912 0 0 1 1.409-2.24.8.8 0 0 1 .619-.167l10.464 5.818q1.137.654 2.148 1.377l.975.56 3.521 2.072 1.26.724a7.553 7.553 0 0 1 1.188 1.4q1.824 2.668 6.455 10.9l5.891 9.579q4.094 5.973 4.771 8.507a12.7 12.7 0 0 1-.3 5.308l-.041.6 3.033 1.79q.137-.588.332-1.191.677-2.04.975-3.394l.225-.68.752-1.855c.248-.366.433-.656.554-.873l3.658-7.665q-2.543-1.27-3.1-1.5-.309.393-.729 1.057-.42.664-.908 1.384a8.387 8.387 0 0 1-.821 1.529 2.553 2.553 0 0 1-.879.686 4.061 4.061 0 0 1-.738-.281 5.256 5.256 0 0 1-1.435-1.776l-4.806-6.812-.141-.271q-3.837-6.112-5.72-9.624l-4.305-7.43a18.855 18.855 0 0 1 2.525-.168q.4-.007 1.685-.08.669-.043 1.379-.065.461-.021.9 0 4.1.02 4.673-.031 2.145-.1 4.535-.061a65.45 65.45 0 0 1 11.175-.25l.5.382.069.325q-.414 1.762-.6 2.846l-.38 1.926a11.189 11.189 0 0 0-.292 2.452l2.1 1.254a2.961 2.961 0 0 0 .891.274l.166-.286a4.1 4.1 0 0 0 .169-.665 42.949 42.949 0 0 1 2.012-6.324q1.143-2.822 3.452-7.4 1.251-2.472 1.568-3l.116-.41a9.377 9.377 0 0 1 .711-1.26l.238-.34a22.5 22.5 0 0 0 1.633-5.016q-.762-.492-1.132-.753z" class="cls-3" data-name="Y"/>
    <path fill-rule="evenodd" d="M610.2 532.268a51.423 51.423 0 0 0 4.7-5.5q6.361-9.215 5.5-16.505a14.146 14.146 0 0 0-6.782-10.954 15.468 15.468 0 0 0-7.3-2.09 17.275 17.275 0 0 0-8.29 1.5q-3.931 1.77-11.626 7.91-7.695 6.139-10.349 6.983-4.325 1.41-7.08-.3a7.062 7.062 0 0 1-3.06-4.232 10.379 10.379 0 0 1 .177-6.072 20.049 20.049 0 0 1 2.547-5.461 19.56 19.56 0 0 1 3.923-4.256 16.074 16.074 0 0 1 4.427-2.552 16.3 16.3 0 0 1 5.039-.932q1.259-.048 6.776.529l2.591-3.907-1.414-.875q-1-.623-3.48-2.036-4.83-2.7-5.24-2.95l-.409-.252a1.685 1.685 0 0 0-.964-.064 11.4 11.4 0 0 0-2.736 2.039l-4.74 4.175a49.647 49.647 0 0 0-5.529 6.47 39.436 39.436 0 0 0-4.3 7.618 23.847 23.847 0 0 0-1.563 6.764 27.188 27.188 0 0 0-.041 5.486 11.292 11.292 0 0 0 1.638 4.628 19.238 19.238 0 0 0 5.882 5.716 15.717 15.717 0 0 0 5.984 2.373 17.664 17.664 0 0 0 6.808-.668 23.6 23.6 0 0 0 7-3.458 64.853 64.853 0 0 0 6.379-4.794q7.221-6.32 11.02-7.282 3.829-1 6.211.473a6.455 6.455 0 0 1 3.1 5.326q.27 3.574-2.538 7.642a13.594 13.594 0 0 1-8.105 5.588q-3.009.742-9.181-.471l-.418.452-2.249 2.874-.175.484a7.936 7.936 0 0 0 1.336 1.064 57.079 57.079 0 0 0 6.3 3.188 26.6 26.6 0 0 0 4.348 1.625 62.821 62.821 0 0 0 5.889-5.3z" class="cls-3" data-name="S"/>
    <path fill-rule="evenodd" d="M215.482 557.826q.8.672 1.455 1.136a22.928 22.928 0 0 1 3.509 2.99q.555.575.888.9a1.643 1.643 0 0 1 .633 1.194q-.405.6-.564.79l-3.621 4.823-3.631 4.188-4.91 6.073-3.631 4.188-11.886 14.115-1.022 1.132q-1.269 1.55-1.809 2.184a12.5 12.5 0 0 1-2.718 2.473 20.474 20.474 0 0 1-6.2-2.038 25.076 25.076 0 0 0-3.082-1.3l-2.193 2.573 4.481 2.568 1.511.943q6.615 3.558 10.934 6.252 8.67 5.41 14.6 9.51 8.426 5.83 10.441 7.088 1.367.852 3.8 2.2l4.264-3.85 7.323-6.225 1.167-.985q.61-.59 1.513-1.455-.761-.53-1.155-.777a20.9 20.9 0 0 0-1.929-1.033 31.048 31.048 0 0 1-10.044 4.47 11.807 11.807 0 0 1-6.374-.151 44.275 44.275 0 0 1-9.154-4.513q-7.55-4.712-8.356-6.414a2.331 2.331 0 0 1 .683-2.543l6.944-8q2.369-3.033 6.155-7.467.254-.3 1.082-1.267a89.772 89.772 0 0 1 8.433 4.805q4.612 2.878 5.111 3.589a2.521 2.521 0 0 1 .582 1.9q-.156 1.218-2.393 5.132-1.2 2.11-1.559 2.8l2.552 1.593.7-.82q.923-1.08 2.708-3.364 1.785-2.285 2.644-3.29.54-.635 1.549-1.718t4.349-5q1.463-1.713 4.151-5.12l-2.054-1.338-.5-.254q-4.914 4.072-5.938 4.69a6.162 6.162 0 0 1-2.537.9 10.51 10.51 0 0 1-4.008-1.387q-2.961-1.448-9.411-5.473a13.371 13.371 0 0 1-1.454-1.078l4.009-4.695 5.308-6.282q5.472-6.408 6.375-7.273 3.579 2.005 7.966 4.742 3.848 2.4 6.937 4.785 1.706 1.293 2.034 1.555a9.414 9.414 0 0 1 2.046 1.734 18.889 18.889 0 0 1-.625 4.864l-.821 3.543q-.7 1.789-1.014 2.737.87.657 1.159.837l1.538.845q.417-.425.608-.648l1.233-1.572 6.553-7.676a3.754 3.754 0 0 0 1.083-2.414 55.93 55.93 0 0 0-5.995-4.6l-6.571-3.987q-6.472-4.038-14.777-8.706-5.548-3.12-6.842-3.927a48.306 48.306 0 0 1-6.23-4.516 40.623 40.623 0 0 0-3.273-2.557z" class="cls-3" data-name="E"/>
    <path fill-rule="evenodd" d="M292.289 595.256a48.031 48.031 0 0 0-5.832-4.3q-9.621-5.561-16.666-3.575a14.967 14.967 0 0 0-10.057 8.92 18.91 18.91 0 0 0-1.341 8.2 19.927 19.927 0 0 0 2.267 8.76q2.111 4 8.852 11.45 6.741 7.452 7.822 10.2 1.8 4.48.392 7.71a7.646 7.646 0 0 1-3.842 3.923 9.333 9.333 0 0 1-5.954.683 17.76 17.76 0 0 1-5.584-1.972 18.509 18.509 0 0 1-4.538-3.635 16.8 16.8 0 0 1-2.922-4.426 18.811 18.811 0 0 1-1.395-5.323q-.168-1.356-.135-7.413l-4.068-2.243-.72 1.657q-.512 1.178-1.656 4.06-2.171 5.62-2.379 6.1l-.208.48a2.03 2.03 0 0 0 .03 1.055 11.466 11.466 0 0 0 2.257 2.668l4.537 4.532a46.433 46.433 0 0 0 6.859 5.056 35.3 35.3 0 0 0 7.86 3.56 20.948 20.948 0 0 0 6.764.719 24.462 24.462 0 0 0 5.367-.745 11.161 11.161 0 0 0 4.367-2.44 21.925 21.925 0 0 0 5.023-7.192 19.155 19.155 0 0 0 1.744-6.821 20.787 20.787 0 0 0-1.308-7.277 25.169 25.169 0 0 0-4.054-7.082 65.2 65.2 0 0 0-5.3-6.218q-6.873-6.908-8.18-10.884-1.349-4-.135-6.794a6.773 6.773 0 0 1 4.909-4.123q3.468-.807 7.715 1.648a13.8 13.8 0 0 1 6.242 7.973q1.017 3.152.423 10.009l.483.388 3.025 2.02.49.12a9.245 9.245 0 0 0 .913-1.6 69.19 69.19 0 0 0 2.51-7.276 32.449 32.449 0 0 0 1.171-4.941 61.152 61.152 0 0 0-5.748-5.614z" class="cls-3" data-name="S"/>
    <path fill-rule="evenodd" d="M306.878 601.63a104.3 104.3 0 0 1-5.936 11.372 8.374 8.374 0 0 0 2.109 2.06q.5.058 1.832-1.27 4.589-4.611 6.609-5.533 1.5-.66 5.417-.2 7.132.843 8.389 1.178a.9.9 0 0 1 .534.318 1.092 1.092 0 0 1 .171.647 81.915 81.915 0 0 1-1.458 8.6l-3.206 17.173q-2.365 11.886-3.742 17.295a6.621 6.621 0 0 1-.952 2.209 32.246 32.246 0 0 1-6.413 1.332 6.372 6.372 0 0 0-3.85 1.54l-.072.364-.166 1.048c-.021.246-.062.6-.125 1.054q.71.082 3.123.183 6.2.175 7.449.323 7.881.93 10.817 1.627a65.1 65.1 0 0 0 7.231 1.2q.584.069 1.511.132a8.387 8.387 0 0 0 .36-1.164q.074-.363.188-2.021a14.34 14.34 0 0 0-2.077-.99q-2.631-1.005-2.957-1.091a9.544 9.544 0 0 1-2.355-.882 16.773 16.773 0 0 1 .436-4.778l1.216-5.892 2.739-14.4 2.656-13.338 1.168-6.083a27.014 27.014 0 0 1 .788-2.88q1.791.028 2.963.165a82.625 82.625 0 0 1 8.818 1.275 2.107 2.107 0 0 1 1.017.909 20.4 20.4 0 0 1 .869 3.91 29.8 29.8 0 0 0 1.341 5.406 14.592 14.592 0 0 0 3.148-.371 11.48 11.48 0 0 0 .573-2.021l.5-2.31.762-4.042q1.255-6.3 1.837-9.441-.825-.143-1.242-.193l-1.844-.171-.688 1.094a5.852 5.852 0 0 1-1.606 2.066l-2.534.076-12.888-1.523-9.417-1.16-5.056-.551h-.854q-2.51-.263-5.721-.642a55 55 0 0 1-5.687-.811 14.962 14.962 0 0 1-1.217-3.106 41.508 41.508 0 0 0-.271-.785l-2.586-.3q-.473.873-1.654 3.38zm51.16 53.547a9.387 9.387 0 0 0-3.006 2.236 7.329 7.329 0 0 0-1.5 3.247 6.371 6.371 0 0 0 .774 4.9 5.262 5.262 0 0 0 4.01 2.372 6.55 6.55 0 0 0 5.352-2 8.155 8.155 0 0 0 2.026-4.388 5.356 5.356 0 0 0-1-4.328 5.6 5.6 0 0 0-4.082-2.334 4.263 4.263 0 0 0-2.578.3z" class="cls-3"/>
    <path fill-rule="evenodd" d="M394.622 607.013a53.688 53.688 0 0 1-4.007 5.886 55.024 55.024 0 0 1-4.577 4.6 21.978 21.978 0 0 0 2.2 3.073q2.639-2.092 2.953-2.43a61.21 61.21 0 0 0 5.009-5.857q.5 2.253.822 3.819.332 1.614.493 2.587l.182 1.447.754 3.117.163 1.164c.069.465.152.928.246 1.389q.114.552.877 3.525l.391 2.65q.755 3.118.878 3.717.2.968.38 2.224.417 2.409.493 2.778l.406 1.79 1.475 7 .552 3.436.68 3.128a2.491 2.491 0 0 1-.248 1.874 7.548 7.548 0 0 1-3.042 1.9q-1.864.825-3.244 1.572.133 1.026.238 1.533.114.552.4 1.555 1.122-.324 1.493-.385l1.875-.207.983-.255 1.1-.081.668-.108q.408-.066 1.03-.214 5.631-1.15 6.521-1.293.7-.114 2.627-.282 3.154-.318 4.788-.583l1.6-.258q-.276-1.718-.38-2.225a5.833 5.833 0 0 0-.254-.863q-2.8-.166-3.714-.162a5.673 5.673 0 0 1-2.992-.564 3.189 3.189 0 0 1-.926-1.9l-.539-2.627-6.126-31.154-.95-4.382-1.355-6.972q-.843-4.293-.938-4.944-.209-1.2-.256-1.435-.141-.691-.593-2.142l-2.347.332-1.2.146q-2.319.469-2.5.5a37.654 37.654 0 0 1-2.09 4.576z" class="cls-3" data-name="1"/>
    <path fill-rule="evenodd" d="M437.123 657.847a24.884 24.884 0 0 0 6.716-4.68 33.326 33.326 0 0 0 6.814-8.865 36.706 36.706 0 0 0 3.938-10.821 55.026 55.026 0 0 0 1.062-7.344 45.6 45.6 0 0 0-1.581-13.321q-3.433-11.886-10.186-16.164a14.713 14.713 0 0 0-14.164-1.253 17.868 17.868 0 0 0-7.182 5.4 18.349 18.349 0 0 0-3.823 8.955 23.9 23.9 0 0 0 .676 10.417 27.859 27.859 0 0 0 2.61 6.16 13.026 13.026 0 0 0 3.026 3.592 13.977 13.977 0 0 0 4.531 2.3 21.23 21.23 0 0 0 5.212.347 9.754 9.754 0 0 0 2.356-.767 16.625 16.625 0 0 0 5.133-3.258 2.38 2.38 0 0 0 .558-2.6 2.169 2.169 0 0 0-.811-1.294 1.065 1.065 0 0 0-1.006-.147l-.55.37a7.665 7.665 0 0 1-1.935 1.177 6.589 6.589 0 0 1-3.293.422 4.054 4.054 0 0 1-1.82-1.148 11.409 11.409 0 0 1-2.676-3.807 59.052 59.052 0 0 1-2.7-7.53q-1.929-6.68-.584-11.255a6.26 6.26 0 0 1 3.5-4.386q2.7-1.1 5.428 1.229 3.616 3.132 6.812 14.194a52.888 52.888 0 0 1 1.307 5.43q.552 3.123.739 3.919a42.582 42.582 0 0 1 .93 6.774 29.081 29.081 0 0 1-.654 8.7 26.514 26.514 0 0 1-3.206 7.954 34.844 34.844 0 0 1-5.788 7.04 9.756 9.756 0 0 0-1.929 2.1 1.891 1.891 0 0 0-.052 1.332 2.461 2.461 0 0 0 1.088 1.35q1-.311 1.507-.518z" class="cls-3" data-name="9"/>
    <path fill-rule="evenodd" d="M475.615 609.547a6.652 6.652 0 0 1 6.092.862q3.18 1.969 6.423 9.192a36.554 36.554 0 0 1 2.026 5.677 11.779 11.779 0 0 1 .255 5.275 6.647 6.647 0 0 1-1.548 2.83 4.444 4.444 0 0 1-1.879 1.182 5.934 5.934 0 0 1-4 .305q-2.559-.942-5.028-4.467a59.11 59.11 0 0 1-5.156-9.51 69.79 69.79 0 0 1-3.878-11.07 31.91 31.91 0 0 1-1-11.04 21.744 21.744 0 0 1 2.734-8.186 22.453 22.453 0 0 1 6.722-7.5 20.154 20.154 0 0 0 2.6-2.014 4.485 4.485 0 0 0-.433-1.471 2.238 2.238 0 0 0-.886-1.111 1.263 1.263 0 0 0-1.091-.053q-3.108 1.18-8.144 5.757a39.763 39.763 0 0 0-5.532 6.61 30.408 30.408 0 0 0-4.349 9.5 28.212 28.212 0 0 0-.615 11.235 38.766 38.766 0 0 0 2.941 10.7 33.862 33.862 0 0 0 6.427 9.657 26.264 26.264 0 0 0 5.74 4.383 18.159 18.159 0 0 0 6.688 2.34 14.014 14.014 0 0 0 6.876-.883q7.767-2.951 10.149-9.135 2.382-6.184-1.049-13.814-3.153-7.023-8.612-9.715a13 13 0 0 0-10.778-.67 12.822 12.822 0 0 0-4.8 3.274 11.933 11.933 0 0 1-1.168 1.144q.373.933.571 1.372.198.439.63 1.3a11.8 11.8 0 0 1 3.073-1.962z" class="cls-3" data-name="6"/>
    <path fill-rule="evenodd" d="M519.17 622.958a23.494 23.494 0 0 0 5.721-5.644 29.194 29.194 0 0 0 4.789-9.584 31.5 31.5 0 0 0 1.363-10.873 48.059 48.059 0 0 0-.725-7.076 42.554 42.554 0 0 0-4.9-12.178Q518.966 567.12 511 564.382a16.958 16.958 0 0 0-20.83 7.9 15.784 15.784 0 0 0-1.7 9.1 21.975 21.975 0 0 0 3.262 9.628 28.265 28.265 0 0 0 4.192 5.278 14.39 14.39 0 0 0 3.983 2.794 16.337 16.337 0 0 0 5.206 1.3 24.226 24.226 0 0 0 5.422-.655 10.092 10.092 0 0 0 2.223-1.162 15.838 15.838 0 0 0 4.451-4.015 2.1 2.1 0 0 0-.071-2.544 2.313 2.313 0 0 0-1.15-1.058 1.209 1.209 0 0 0-1.066.05l-.471.45a7.392 7.392 0 0 1-1.692 1.467 7.169 7.169 0 0 1-3.267 1.014 4.734 4.734 0 0 1-2.147-.733 12.363 12.363 0 0 1-3.678-3.062 59.106 59.106 0 0 1-4.623-6.544q-3.622-5.892-3.374-10.43a5.561 5.561 0 0 1 2.5-4.764q2.491-1.54 5.861.13 4.475 2.253 10.475 12.01a51.1 51.1 0 0 1 2.678 4.84q1.335 2.819 1.723 3.53a39.942 39.942 0 0 1 2.623 6.169 25.844 25.844 0 0 1 1.47 8.278 22.749 22.749 0 0 1-1.323 8.05 30.666 30.666 0 0 1-4.188 7.682 8.664 8.664 0 0 0-1.458 2.326 1.7 1.7 0 0 0 .274 1.255 2.7 2.7 0 0 0 1.447 1.06q.946-.48 1.416-.768z" class="cls-3" data-name="9"/>
  </g>
  <path fill="#8B969E" stroke="#000" stroke-linecap="round" stroke-linejoin="round" stroke-width="10.847" d="M282.589 352.649h152.537v178.778H282.589z" paint-order="stroke fill markers"/>
  <path fill="#8B969E" d="M242 335.084h229.902v13.259H242z" paint-order="stroke fill markers"/>
  <path fill="#000" d="M330.329 573.56c-51.767-7.416-100.584-32.203-134.404-68.244-6.036-6.432-7.421-8.511-7.165-10.752.25-2.188.861-2.779 2.876-2.779 1.672 0 2.91.808 3.57 2.33l1.01 2.329H274.545v-5.176c0-3.856-.383-5.176-1.5-5.176-.824 0-1.975-.9-2.557-1.999-1.792-3.388.94-5.046 7.313-4.437 5.05.482 5.888.977 11.585 6.842 14.816 15.252 27.127 22.292 47.262 27.026 5.004 1.176 5.662 1.136 6.136-.376 1.722-5.494 2.965-7.696 5.62-9.955 8.295-7.06 21.883-2.15 24.024 8.68.71 3.583-.012 3.586 13.666-.057 15.848-4.222 35.482-15.73 44.869-26.3 4.145-4.668 5.436-5.48 9.556-6 3.491-.443 5.094-.202 6 .902 1.595 1.944.54 4.685-2.069 5.375-1.688.447-2.042 1.415-2.042 5.595v5.056h40.943c35.274 0 40.942-.21 40.942-1.517 0-2.197 3.259-3.697 5.4-2.485 3.236 1.831 1.835 4.518-7.191 13.79-34.15 35.078-76.655 57.577-124.56 65.931-16.17 2.82-52.446 3.57-67.613 1.397zM242 252.606v-85.394l6.779-3.93c21.68-12.57 47.45-21.395 75.571-25.881 16.174-2.58 48.98-3.08 64.949-.99 31.453 4.117 58.872 14.644 78.335 26.846l4.268 2.676v172.172L359.5 338H242z"/>
  <path fill="#000" d="M297.694 470.521c-19.5-.623-19.912-.683-28.043-4.054-6.553-2.717-13.12-7.106-31.89-21.312-62.019-46.942-84.716-64.017-89.022-66.971-4.974-3.413-6.14-5.596-4.853-9.088 1.559-4.232 4.467-3.85 16.944 2.226 6.509 3.17 12.537 6.13 13.397 6.578.86.448 8.784 4.129 17.61 8.179l16.044 7.363 7.782-.452c12.629-.734 20.474-5.67 18.27-11.492-.989-2.61-1-2.612-9.936-1.935-10.542.8-13.356-.169-13.356-4.594 0-3.779 1.571-5.45 13.47-14.33 5.458-4.074 11.716-9.512 13.906-12.085l3.983-4.68 113.192-.292c62.255-.161 114.589-.042 116.297.265 2.014.362 4.111 1.895 5.968 4.36 2.735 3.633 11.114 10.65 20.143 16.869 7.584 5.224 9.638 9.807 6.022 13.438-1.485 1.49-3.048 1.64-11.157 1.068l-9.43-.666-.984 2.598c-2.252 5.947 5.04 10.635 17.786 11.434 8.123.509 8.423.441 18.278-4.104 22.603-10.426 32.561-15.136 37.364-17.67 2.785-1.47 6.38-3.36 7.991-4.2 4.536-2.365 8.128-.679 8.52 4 .297 3.554.034 3.864-8.102 9.578-4.625 3.247-22.537 16.665-39.804 29.817-58.395 44.476-68.858 52.232-72.411 53.68-5.422 2.207-8.42 3.524-10.547 4.634-2.576 1.344-52.979 3.044-55.142 1.86-.912-.499-4.165-5.864-7.228-11.923-3.064-6.058-7.507-13.436-9.874-16.394-3.757-4.695-4.305-6.017-4.305-10.389 0-6.064 1.404-7.115 9.505-7.115 10.268 0 19.68-2.828 24.675-7.415 2.114-1.94 2.279-2.95 2.279-13.968 0-10.668-.234-12.224-2.303-15.307-4.713-7.022-7.525-8.034-22.912-8.243-26.932-.366-49.113.383-51.753 1.748-1.393.72-3.839 2.689-5.435 4.376-2.53 2.673-3.022 4.22-3.827 12.04-1.045 10.165-.396 16.24 2.03 18.996 3.931 4.466 14.704 7.773 25.317 7.773 8.116 0 9.678 1.364 9.052 7.9-.394 4.12-1.314 6.173-4.514 10.077-2.211 2.698-6.442 9.703-9.402 15.567-2.96 5.864-6.12 11.227-7.023 11.917-.906.692-4.135 1.19-7.21 1.113-3.064-.078-14.477-.427-25.362-.775z"/>
  <g fill="#D4AF37">
    <circle cx="357.822" cy="515.301" r="7.742" paint-order="stroke fill markers"/>
    <circle cx="385.579" cy="549.101" r="7.742" paint-order="stroke fill markers"/>
    <circle cx="329.687" cy="549.478" r="7.742" paint-order="stroke fill markers"/>
    <g>
      <path d="M300.16 319.796c.292-1.573 2.097-14.902 4.011-29.62l3.48-26.758-21.544-21.465c-11.85-11.805-21.545-21.736-21.544-22.068.001-.333 13.095-2.905 29.098-5.716 16.002-2.811 30.072-5.462 31.266-5.891 1.417-.51 7.323-9.643 16.995-26.283 8.154-14.026 15.108-25.517 15.454-25.535.346-.017 7.26 11.305 15.364 25.16 8.105 13.857 15.006 25.511 15.336 25.9.685.805 57.314 11.241 60.998 11.241 1.922 0-2.087 4.545-19.642 22.265l-22.056 22.265 3.887 29.228c2.138 16.075 3.724 29.367 3.525 29.537-.199.17-12.876-5.236-28.172-12.014-15.295-6.777-28.343-12.323-28.995-12.324-.653 0-12.472 4.969-26.265 11.043-13.794 6.075-26.575 11.687-28.402 12.47-3.321 1.425-3.322 1.425-2.793-1.435z"/>
      <circle cx="411.232" cy="320.246" r="7.742" paint-order="stroke fill markers"/>
      <circle cx="300.161" cy="319.796" r="7.742" paint-order="stroke fill markers"/>
      <circle cx="264.563" cy="219.885" r="7.742" paint-order="stroke fill markers"/>
      <circle cx="449.074" cy="218.761" r="7.742" paint-order="stroke fill markers"/>
      <circle cx="357.376" cy="156.46" r="7.742" paint-order="stroke fill markers"/>
    </g>
  </g>
  <path d="M406.346 265.695q0-.586.117-1.386l2.441-.43q.45-.098 1.075-.313l.253-4.882q-.078-2.637-.078-3.946l.02-.468q.058-.801.058-4.024l-.039-.566.04-1.64-.02-1.7v-.84q0-1.133-.176-2.656-.02-.137-.156-.469-.156-.059-.352-.078-.175-.02-.37-.059-.762-.136-1.622-.195l-.293-.078q-.527-.059-.8-.156-.06-.567-.06-.723 0-.234.118-.644.39-.079 1.094-.079.703 0 .976-.02 2.383.255 3.535.274.528 0 1.055.04.547.019.957.019.645 0 3.145-.195.41-.098.898-.098.723 0 1.211.078.02.41.02.586 0 .312-.079.762l-3.437.547q-.43.195-.43.566l.059.723.02.312-.02.86-.04.664v.156q.02.215.02.37l-.02 2.481q.02.352.02.528 0 .097-.039.625-.02.312-.02.644 0 .293.06 1.387.546.098.917.117l2.89.059h1.407l3.516.02 3.418-.098q.664 0 1.406-.137.04-.664.059-3.262l.039-.879-.118-3.32-.136-1.367q-.059-.137-.274-.254-.683-.39-2.734-.88-.371-.077-.703-.194.039-.684.156-1.114.43-.02.527-.02l1.895.02q1.816.235 3.691.235.43 0 .684-.02l2.539-.078.684-.039q.703-.156 1.445-.156.566 0 1.367.058-.02.762-.098 1.387-1.796.371-2.363.547-.547.156-1.113.45l-.117.39v.332l.02.508-.02.254q-.04.41-.04.625v.488q.02.879.02.976v2.48l.02 1.876-.04 2.48q-.019.86.06 3.516v2.773l.038 2.305q0 .645-.039 1.563.41.117.762.195 1.836.39 2.773.8l.059 1.368q-.781.02-.918.02-.938 0-2.149-.118-1.601-.176-5.156-.176-1.601 0-4.14.254-.274 0-.665-.117.02-.898.098-1.27l1.504-.351 1.582-.254q.234-.058.606-.176.214-1.582.234-5.254l.02-1.66q-.118-1.035-.118-2.48-.722-.059-1.562-.078l-9.063-.098-.176-.02-.136-.019q-.137 0-.313.02-.508.019-.86.019h-.546q-.371 0-.84.137l-.078 1.465v.253q.04.528.04.684v6.055q0 .508.058 1.035l.195.117 2.871.45q.215.077.332.097.254.059.43.176.059.449.059.605 0 .254-.079.703-.703.02-1.191.02-.43 0-.8-.02-.177 0-.333-.02l-2.754-.116q-.976-.098-2.734-.098l-.41.02q-.82.039-.957.058-1.211.156-3.79.156z" style="-inkscape-font-specification:'Garamond Bold'" stroke="#000" aria-label="H" font-family="Garamond" font-size="40" font-weight="700" letter-spacing="0" transform="matrix(1.72407 0 0 1.6988 -370.248 -183.426)" word-spacing="0"/>
  <path fill="#D4AF37" stroke="#D4AF37" stroke-linecap="round" stroke-linejoin="round" d="M180.991 573.255l-14.858-13.368-19.436 4.661 8.122-18.262-10.44-17.045 19.88 2.082 12.983-15.195 4.164 19.548 18.464 7.653-17.306 10zM577.228 566.044l-19.443-4.632-14.838 13.391-1.603-19.923-17.321-9.973 18.452-7.682 4.133-19.555 13.008 15.175 19.875-2.112-10.413 17.06z" paint-order="stroke fill markers"/>
</svg>
